<svg xmlns="http://www.w3.org/2000/svg" width="115.129" height="34" viewBox="0 0 115.129 34"><defs><style>.a{fill:#223368;}.b{fill:#0d0;}</style></defs><g transform="translate(-355 -450)"><path class="a" d="M-254.724-2640.69a4.5,4.5,0,0,1-1.643-.841,4.658,4.658,0,0,1-1.253-1.619,5.844,5.844,0,0,1-.5-2.576v-1.56a6.894,6.894,0,0,1,.337-2.229,4.639,4.639,0,0,1,.977-1.684,4.206,4.206,0,0,1,1.586-1.062,5.911,5.911,0,0,1,2.145-.368,5.6,5.6,0,0,1,2.157.39,4.21,4.21,0,0,1,1.567,1.1,4.842,4.842,0,0,1,.957,1.692,6.8,6.8,0,0,1,.326,2.157v1.177c0,.351-.142.527-.424.527h-6.872v.063a3.964,3.964,0,0,0,.115.937,2.416,2.416,0,0,0,.4.861,2.09,2.09,0,0,0,.768.631,2.771,2.771,0,0,0,1.24.242q1.156,0,2.176-.074t1.693-.137h.063a.47.47,0,0,1,.274.073.274.274,0,0,1,.1.242v1.388a.762.762,0,0,1-.073.381c-.049.084-.172.14-.367.169l-.946.157q-.444.073-.895.115c-.3.029-.629.049-.988.064s-.774.021-1.251.021A6.389,6.389,0,0,1-254.724-2640.69Zm.014-8.876a2.671,2.671,0,0,0-.634,1.924v.085h4.5l0-.084a2.737,2.737,0,0,0-.616-1.914,2.085,2.085,0,0,0-1.613-.673h-.073A2.171,2.171,0,0,0-254.711-2649.567Zm8.917,7.708a5.648,5.648,0,0,1-1.241-3.879v-1.622a5.648,5.648,0,0,1,1.241-3.879,4.806,4.806,0,0,1,3.785-1.4q.381,0,.9.031t1.115.116v-3.724a.429.429,0,0,1,.419-.42h1.935a.43.43,0,0,1,.42.42v14.632a.5.5,0,0,1-.105.347,1.079,1.079,0,0,1-.463.22,17.765,17.765,0,0,1-2.1.4,16.3,16.3,0,0,1-2.123.147A4.805,4.805,0,0,1-245.794-2641.858Zm2.669-8.256a1.772,1.772,0,0,0-.694.627,2.535,2.535,0,0,0-.347.939,6.968,6.968,0,0,0-.094,1.193v1.61a6.959,6.959,0,0,0,.094,1.191,2.54,2.54,0,0,0,.347.941,1.771,1.771,0,0,0,.694.627,2.4,2.4,0,0,0,1.114.229q.567,0,1.146-.041a6.926,6.926,0,0,0,.873-.1v-7.3q-.444-.065-1.041-.1t-.977-.042h-.084A2.407,2.407,0,0,0-243.124-2650.114Zm-28.942,9.372a4.851,4.851,0,0,1-1.917-1,5.542,5.542,0,0,1-1.44-1.967,7.634,7.634,0,0,1-.572-3.2v-3.09a7.783,7.783,0,0,1,.572-3.228,5.418,5.418,0,0,1,1.44-1.966,4.8,4.8,0,0,1,1.917-.977,8.228,8.228,0,0,1,2-.263q.609,0,1.156.042t.99.094c.3.035.544.07.747.105a3.561,3.561,0,0,1,.43.095,1.062,1.062,0,0,1,.337.157.381.381,0,0,1,.127.326v1.41a.509.509,0,0,1-.094.317.381.381,0,0,1-.327.127h-.041l-.662-.052c-.259-.021-.536-.039-.831-.053l-.9-.042q-.463-.02-.884-.021a3.821,3.821,0,0,0-1.22.191,2.157,2.157,0,0,0-.967.652,3.317,3.317,0,0,0-.63,1.219,6.476,6.476,0,0,0-.232,1.872v3.087a6.39,6.39,0,0,0,.232,1.849,3.311,3.311,0,0,0,.63,1.219,2.229,2.229,0,0,0,.967.662,3.606,3.606,0,0,0,1.219.2c.281,0,.575-.006.884-.021l.9-.042c.3-.013.572-.031.83-.052l.662-.053h.042a.38.38,0,0,1,.326.127.514.514,0,0,1,.095.317v1.409a.382.382,0,0,1-.126.322,1.059,1.059,0,0,1-.336.157c-.084.014-.228.041-.431.084s-.452.081-.746.116-.624.063-.989.094-.75.041-1.156.041A7.945,7.945,0,0,1-272.066-2640.742Zm44.926.109a2.079,2.079,0,0,1-1.033-.494,2.176,2.176,0,0,1-.584-1.02,6.311,6.311,0,0,1-.19-1.7v-6.6l-1.976-.294a.705.705,0,0,1-.294-.148.337.337,0,0,1-.127-.273v-.946a.432.432,0,0,1,.42-.421h1.976v-1.724a.338.338,0,0,1,.127-.273.728.728,0,0,1,.292-.148l1.941-.336h.084c.222,0,.334.105.334.317v2.165h1.892a.433.433,0,0,1,.42.421v1.238a.432.432,0,0,1-.42.42h-1.892v6.6q0,.4.021.634a.78.78,0,0,0,.1.357.369.369,0,0,0,.254.158,2.528,2.528,0,0,0,.445.031h1.114q.444,0,.444.317v1.325c0,.205-.139.331-.4.374s-.495.077-.725.1a5.757,5.757,0,0,1-.7.042h-.1A7.943,7.943,0,0,1-227.14-2640.633Zm19.416.079c-.212,0-.468-.007-.768-.021s-.626-.039-.977-.075-.7-.078-1.051-.127a6.977,6.977,0,0,1-.965-.2.472.472,0,0,1-.4-.488v-1.271a.344.344,0,0,1,.107-.244.343.343,0,0,1,.25-.094h.085q.381.043.893.085t1.02.073c.338.022.653.039.946.053s.518.021.673.021a3.338,3.338,0,0,0,.779-.073,1.1,1.1,0,0,0,.452-.21.653.653,0,0,0,.21-.326,1.454,1.454,0,0,0,.053-.4.765.765,0,0,0-.21-.525,3.62,3.62,0,0,0-.715-.545l-2.88-1.761a4.077,4.077,0,0,1-1.269-1.228,2.945,2.945,0,0,1-.494-1.668q0-3.147,4-3.147.63,0,1.146.032c.344.022.663.053.957.094s.577.088.841.138.533.1.8.16a.444.444,0,0,1,.381.488v1.23c0,.268-.112.4-.337.4h-.084c-.14-.028-.347-.056-.62-.084s-.571-.052-.894-.074l-1-.063c-.343-.022-.662-.031-.957-.031a2.291,2.291,0,0,0-1.1.2.721.721,0,0,0-.347.681.569.569,0,0,0,.221.444,4.172,4.172,0,0,0,.621.419l2.754,1.678a5.153,5.153,0,0,1,1.061.8,3.752,3.752,0,0,1,.61.8,2.453,2.453,0,0,1,.284.8,5.183,5.183,0,0,1,.053.792,3.279,3.279,0,0,1-.254,1.291,2.766,2.766,0,0,1-.767,1.038,3.74,3.74,0,0,1-1.294.693,5.876,5.876,0,0,1-1.712.254Zm-12.9-.4a4.43,4.43,0,0,1-1.567-1.094,4.642,4.642,0,0,1-.957-1.65,6.454,6.454,0,0,1-.326-2.093v-1.7a6.458,6.458,0,0,1,.326-2.093,4.649,4.649,0,0,1,.957-1.649,4.44,4.44,0,0,1,1.569-1.092,6.121,6.121,0,0,1,4.352,0,4.435,4.435,0,0,1,1.567,1.094,4.649,4.649,0,0,1,.957,1.649,6.459,6.459,0,0,1,.326,2.093v1.7a6.445,6.445,0,0,1-.328,2.091,4.65,4.65,0,0,1-.957,1.65,4.446,4.446,0,0,1-1.567,1.094,6.126,6.126,0,0,1-2.176.4A6.121,6.121,0,0,1-220.622-2640.957Zm.495-8.611a3.408,3.408,0,0,0-.569,2.071v1.7a3.407,3.407,0,0,0,.568,2.071,2.227,2.227,0,0,0,1.681.767,2.227,2.227,0,0,0,1.68-.767,3.407,3.407,0,0,0,.568-2.071l0-1.7a3.407,3.407,0,0,0-.568-2.071,2.229,2.229,0,0,0-1.681-.767A2.227,2.227,0,0,0-220.127-2649.568Zm-14.636,8.946a.387.387,0,0,1-.294-.137.437.437,0,0,1-.127-.3v-11a.431.431,0,0,1,.42-.42h1.935a.43.43,0,0,1,.419.42v11a.439.439,0,0,1-.124.3h0a.386.386,0,0,1-.294.137Zm-29.628-.1a.391.391,0,0,1-.294-.137.44.44,0,0,1-.127-.305v-11a.432.432,0,0,1,.421-.42h1.83a.43.43,0,0,1,.419.42v.444a4.237,4.237,0,0,1,1.577-.809,5.956,5.956,0,0,1,1.429-.2.431.431,0,0,1,.421.42v1.511a.4.4,0,0,1-.128.294.406.406,0,0,1-.3.127,5.5,5.5,0,0,0-1.545.2,7.157,7.157,0,0,0-1.356.557v8.451a.436.436,0,0,1-.127.305.39.39,0,0,1-.294.137Zm11.777-13.083h-1.809c-.127,0-.191-.049-.191-.147a.286.286,0,0,1,.085-.21l2-2.524a2,2,0,0,1,.242-.241.5.5,0,0,1,.3-.074h2.208c.157,0,.234.05.234.147a.241.241,0,0,1-.084.168l-2.481,2.607a1.22,1.22,0,0,1-.221.21.516.516,0,0,1-.251.065Zm17.81-.253a.437.437,0,0,1-.3-.127.388.388,0,0,1-.137-.294v-1.851a.389.389,0,0,1,.137-.294.443.443,0,0,1,.3-.128h2.039a.429.429,0,0,1,.42.42v1.85a.405.405,0,0,1-.125.3.407.407,0,0,1-.3.127Z" transform="translate(673.731 3115.858)"/><path class="b" d="M-268.224-2623a7.665,7.665,0,0,1-7.776-7.531v-18.941a7.664,7.664,0,0,1,7.776-7.528h19.561a7.663,7.663,0,0,1,7.775,7.528v18.941a7.664,7.664,0,0,1-7.775,7.531Zm-5.863-26.472v18.941a5.779,5.779,0,0,0,5.863,5.678h19.561a5.779,5.779,0,0,0,5.863-5.678v-18.941a5.78,5.78,0,0,0-5.863-5.676h-19.561A5.779,5.779,0,0,0-274.087-2649.471Zm21.485,17.377-5.831-12.015-5.732,12.015h-3.76l7.659-15.811h3.644l7.66,15.811Z" transform="translate(631 3107)"/><path d="M-258.246-2653.706a3.8,3.8,0,0,1-.428-.022,3.344,3.344,0,0,1-.338-.057.132.132,0,0,1-.059-.031.075.075,0,0,1-.024-.057v-.311a.085.085,0,0,1,.024-.059.08.08,0,0,1,.059-.023H-259c.042.005.1.011.171.015l.219.013.215.011c.068,0,.122,0,.163,0a.582.582,0,0,0,.4-.1.38.38,0,0,0,.107-.291.386.386,0,0,0-.017-.115.3.3,0,0,0-.059-.1.61.61,0,0,0-.112-.1c-.047-.033-.107-.072-.18-.115l-.571-.342a1.5,1.5,0,0,1-.25-.183.871.871,0,0,1-.156-.19.677.677,0,0,1-.083-.2,1.058,1.058,0,0,1-.023-.219.932.932,0,0,1,.057-.329.634.634,0,0,1,.184-.263.888.888,0,0,1,.334-.171,1.821,1.821,0,0,1,.508-.064c.072,0,.148,0,.229.006s.16.011.238.02l.212.026c.064.009.114.017.152.026a.131.131,0,0,1,.056.028.071.071,0,0,1,.022.054v.325a.08.08,0,0,1-.02.056.067.067,0,0,1-.054.022h-.008c-.146-.014-.289-.025-.43-.032s-.283-.011-.425-.011a.587.587,0,0,0-.348.08.267.267,0,0,0-.107.227.328.328,0,0,0,.015.1.267.267,0,0,0,.057.092.554.554,0,0,0,.11.091c.047.031.1.064.174.106l.52.291a1.76,1.76,0,0,1,.3.2.989.989,0,0,1,.186.211.7.7,0,0,1,.095.225,1.141,1.141,0,0,1,.03.247.967.967,0,0,1-.057.327.735.735,0,0,1-.19.291,1,1,0,0,1-.352.208,1.611,1.611,0,0,1-.5.081Zm2.6-.035a.8.8,0,0,1-.318-.132.657.657,0,0,1-.213-.271,1.09,1.09,0,0,1-.078-.451v-1.513a1.082,1.082,0,0,1,.078-.45.665.665,0,0,1,.213-.272.789.789,0,0,1,.318-.131,2.106,2.106,0,0,1,.4-.035c.131,0,.239,0,.328.006s.164.01.225.015.114.012.156.02l.116.02a.142.142,0,0,1,.067.026.089.089,0,0,1,.019.063v.278a.085.085,0,0,1-.026.064.084.084,0,0,1-.06.025h-.885a.363.363,0,0,0-.266.078.423.423,0,0,0-.077.294v.468h1.175a.085.085,0,0,1,.064.026.085.085,0,0,1,.025.064v.311a.088.088,0,0,1-.025.064.085.085,0,0,1-.064.026h-1.175v.553a.425.425,0,0,0,.077.3.359.359,0,0,0,.266.077h.885a.082.082,0,0,1,.06.027.082.082,0,0,1,.026.063v.277a.086.086,0,0,1-.019.06.142.142,0,0,1-.067.026l-.116.02c-.042.007-.094.013-.156.019s-.137.012-.225.015-.2.007-.328.007A2.236,2.236,0,0,1-255.65-2653.741Zm-8.873,0a.8.8,0,0,1-.317-.132.643.643,0,0,1-.213-.271,1.091,1.091,0,0,1-.079-.451v-1.513a1.107,1.107,0,0,1,.077-.452.65.65,0,0,1,.214-.271.786.786,0,0,1,.317-.132,2.085,2.085,0,0,1,.4-.035c.131,0,.239,0,.328.006s.164.009.225.015.114.013.157.02l.115.019a.155.155,0,0,1,.067.026.085.085,0,0,1,.019.064v.278a.08.08,0,0,1-.026.063.08.08,0,0,1-.06.026h-.882a.365.365,0,0,0-.266.078.422.422,0,0,0-.077.294v.468h1.175a.082.082,0,0,1,.064.026.083.083,0,0,1,.025.063v.313a.083.083,0,0,1-.025.063.081.081,0,0,1-.064.026h-1.175v.555a.426.426,0,0,0,.077.3.361.361,0,0,0,.266.077h.885a.081.081,0,0,1,.06.027.082.082,0,0,1,.026.063v.277a.083.083,0,0,1-.02.06.138.138,0,0,1-.067.026l-.115.02c-.042.007-.094.013-.156.019s-.138.012-.226.015-.2.007-.327.007A2.238,2.238,0,0,1-264.523-2653.741Zm-5.751-.021a1,1,0,0,1-.4-.206,1.142,1.142,0,0,1-.3-.406,1.572,1.572,0,0,1-.119-.659v-.635a1.6,1.6,0,0,1,.119-.665,1.121,1.121,0,0,1,.3-.406,1,1,0,0,1,.4-.2,1.756,1.756,0,0,1,.411-.054,2.036,2.036,0,0,1,.239.009c.076.009.144.013.2.02s.112.014.153.021a.8.8,0,0,1,.09.02.242.242,0,0,1,.068.032.081.081,0,0,1,.026.067v.29a.107.107,0,0,1-.02.064.077.077,0,0,1-.067.026h-.008l-.138-.011c-.053,0-.11-.008-.171-.011l-.186-.009c-.064,0-.125,0-.183,0a.79.79,0,0,0-.253.04.441.441,0,0,0-.2.134.7.7,0,0,0-.13.254,1.333,1.333,0,0,0-.048.386v.635a1.32,1.32,0,0,0,.048.38.694.694,0,0,0,.13.254.465.465,0,0,0,.2.137.75.75,0,0,0,.253.042c.058,0,.119,0,.183,0l.186-.009c.063,0,.118-.006.171-.011l.138-.011h0a.078.078,0,0,1,.067.026.1.1,0,0,1,.019.063v.291a.079.079,0,0,1-.022.067.218.218,0,0,1-.068.032l-.09.017c-.041.009-.093.016-.153.024s-.127.013-.2.02-.155.009-.239.009A1.685,1.685,0,0,1-270.275-2653.762Zm2.543.024h-.433a.089.089,0,0,1-.087-.086v-2.982a.114.114,0,0,1,.037-.094.22.22,0,0,1,.1-.036c.113-.018.243-.031.39-.041s.3-.015.46-.015a2.182,2.182,0,0,1,.477.05,1.153,1.153,0,0,1,.4.162.824.824,0,0,1,.274.3.969.969,0,0,1,.1.465v.04a.873.873,0,0,1-.589.884l.68,1.269a.066.066,0,0,1,.013.028.047.047,0,0,1-.013.039.05.05,0,0,1-.039.013h-.529a.059.059,0,0,1-.054-.027.526.526,0,0,1-.034-.064l-.622-1.153h-.064c-.057,0-.122,0-.2-.006l-.186-.011v1.175a.084.084,0,0,1-.023.063.076.076,0,0,1-.057.026Zm.271-2.738-.106,0a.484.484,0,0,0-.08.006v.978h.08l.112,0,.113,0h.079a.886.886,0,0,0,.492-.108.452.452,0,0,0,.156-.4v-.034a.4.4,0,0,0-.163-.355.884.884,0,0,0-.486-.109h-.088Zm-6.492,2.738h-.368a.088.088,0,0,1-.086-.086v-2.964a.17.17,0,0,1,.049-.123.17.17,0,0,1,.123-.05h.472a.207.207,0,0,1,.111.026.257.257,0,0,1,.08.113l1.007,2.229c.009.023.02.035.034.035s.022-.014.022-.04v-2.279a.075.075,0,0,1,.021-.062.074.074,0,0,1,.062-.021h.373a.073.073,0,0,1,.062.021.072.072,0,0,1,.021.062v2.962a.168.168,0,0,1-.05.124.17.17,0,0,1-.127.05h-.436a.534.534,0,0,1-.146-.019.225.225,0,0,1-.118-.137l-.961-2.111c-.011-.022-.023-.035-.039-.035s-.022.013-.022.035v2.181a.086.086,0,0,1-.023.063.076.076,0,0,1-.057.026Zm14.027,0h-.46a.072.072,0,0,1-.051-.021.111.111,0,0,1-.031-.052l-.2-.824h-1l-.2.824a.119.119,0,0,1-.031.052.074.074,0,0,1-.051.021h-.46a.081.081,0,0,1-.057-.02.071.071,0,0,1-.022-.054v-.009a.034.034,0,0,0,0-.013l.71-2.717a.6.6,0,0,1,.113-.239.559.559,0,0,1,.158-.132.516.516,0,0,1,.173-.059.991.991,0,0,1,.318,0,.516.516,0,0,1,.173.059.564.564,0,0,1,.159.132.585.585,0,0,1,.112.239l.71,2.717a.033.033,0,0,0,0,.013l.009.009a.071.071,0,0,1-.022.054.083.083,0,0,1-.053.02Zm-1.289-2.732a.141.141,0,0,0-.022.054l-.311,1.287h.761l-.311-1.287a.117.117,0,0,0-.022-.054.082.082,0,0,0-.048-.015A.082.082,0,0,0-261.213-2656.473Zm-14.7,2.731a.09.09,0,0,1-.087-.087v-3.047a.08.08,0,0,1,.031-.064.088.088,0,0,1,.064-.023h.428a.088.088,0,0,1,.064.023.079.079,0,0,1,.019.064v3.049a.086.086,0,0,1-.026.059.088.088,0,0,1-.064.026Z" transform="translate(674.146 3110.049)"/></g></svg>