<svg xmlns="http://www.w3.org/2000/svg" xmlns:xlink="http://www.w3.org/1999/xlink" width="157.55" height="36.016" viewBox="0 0 157.55 36.016"><defs><clipPath id="a"><rect width="157.55" height="36.016" fill="none"/></clipPath><clipPath id="b"><rect width="36.015" height="36.016" fill="none"/></clipPath></defs><g clip-path="url(#a)"><g clip-path="url(#b)"><path d="M7.976,36.016A7.986,7.986,0,0,1,0,28.039V7.975A7.985,7.985,0,0,1,7.976,0H28.04a7.984,7.984,0,0,1,7.975,7.975V28.039a7.985,7.985,0,0,1-7.975,7.977ZM1.962,7.975V28.039a6.021,6.021,0,0,0,6.014,6.015H28.04a6.021,6.021,0,0,0,6.014-6.015V7.975A6.021,6.021,0,0,0,28.04,1.962H7.976A6.021,6.021,0,0,0,1.962,7.975ZM24,26.117,18.019,13.793,12.14,26.117H8.282L16.139,9.9h3.738l7.857,16.218Z" fill="#00d246"/></g><text transform="translate(43.819 26.802)" fill="#243568" font-size="22" font-family="NeueHaasUnicaW1G-Medium, Neue Haas Unica W1G" font-weight="500" letter-spacing="-0.036em"><tspan x="0" y="0">Calculadora</tspan></text></g></svg>