<svg xmlns="http://www.w3.org/2000/svg" width="80.888" height="34" viewBox="0 0 80.888 34"><defs><style>.a{fill:#223368;}.b{fill:#0d0;}</style></defs><g transform="translate(40.444 17)"><g transform="translate(-40.444 -17)"><g transform="translate(42.856 9.493)"><path class="a" d="M79.053,30.759a1.023,1.023,0,0,1-.326.152c-.081.014-.221.041-.417.082s-.438.079-.723.112-.6.061-.957.092-.727.041-1.12.041a7.7,7.7,0,0,1-1.934-.265,4.7,4.7,0,0,1-1.856-.967,5.369,5.369,0,0,1-1.395-1.9,7.4,7.4,0,0,1-.553-3.094V22.015a7.535,7.535,0,0,1,.553-3.125,5.252,5.252,0,0,1,1.395-1.9,4.668,4.668,0,0,1,1.856-.945,7.974,7.974,0,0,1,1.934-.254q.59,0,1.12.041t.958.091q.43.051.723.1a3.291,3.291,0,0,1,.417.092,1.036,1.036,0,0,1,.326.152.369.369,0,0,1,.123.316v1.366a.491.491,0,0,1-.092.307.369.369,0,0,1-.316.123H78.73c-.176-.013-.39-.031-.641-.051s-.519-.037-.8-.051l-.875-.041q-.448-.02-.856-.02a3.7,3.7,0,0,0-1.181.184,2.085,2.085,0,0,0-.936.631,3.22,3.22,0,0,0-.611,1.181A6.262,6.262,0,0,0,72.6,22.02v2.989a6.172,6.172,0,0,0,.224,1.791,3.21,3.21,0,0,0,.611,1.181,2.161,2.161,0,0,0,.936.641,3.517,3.517,0,0,0,1.179.2q.408,0,.856-.02l.874-.041q.43-.02.8-.051l.641-.051h.041a.369.369,0,0,1,.316.123.491.491,0,0,1,.092.307v1.364a.369.369,0,0,1-.122.311Z" transform="translate(-69.769 -15.582)"/><path class="a" d="M96.048,33.245a.392.392,0,0,1-.286.123h-1.73a.418.418,0,0,1-.407-.407v-.326A7.053,7.053,0,0,1,92.2,33.3a4.607,4.607,0,0,1-1.445.235,5.724,5.724,0,0,1-1.262-.143,2.768,2.768,0,0,1-1.944-1.568,3.888,3.888,0,0,1-.316-1.69V30.05a3.109,3.109,0,0,1,1.16-2.636,6.372,6.372,0,0,1,3.808-.885h1.283v-.9a1.6,1.6,0,0,0-.439-1.332,2.261,2.261,0,0,0-1.351-.328q-.977,0-1.893.051t-1.425.112h-.1a.508.508,0,0,1-.265-.061c-.068-.04-.1-.135-.1-.283v-1.29a.412.412,0,0,1,.387-.423q.611-.123,1.474-.222a16.708,16.708,0,0,1,1.926-.1,5.081,5.081,0,0,1,3.329.958,3.6,3.6,0,0,1,1.15,2.931V32.96a.39.39,0,0,1-.125.285Zm-2.566-4.927h-1.29a4.752,4.752,0,0,0-1.137.112,1.756,1.756,0,0,0-.7.326,1.063,1.063,0,0,0-.348.539,2.764,2.764,0,0,0-.092.754v.082a1.188,1.188,0,0,0,.348,1.008,1.942,1.942,0,0,0,1.127.254,3.8,3.8,0,0,0,1.1-.163,5.24,5.24,0,0,0,.993-.407Z" transform="translate(-76.502 -17.875)"/><path class="a" d="M111.047,23.91a.39.39,0,0,1-.285.123,5.332,5.332,0,0,0-1.5.193,6.971,6.971,0,0,0-1.313.539v8.184a.422.422,0,0,1-.123.295.375.375,0,0,1-.285.133h-1.874a.375.375,0,0,1-.285-.133.424.424,0,0,1-.123-.295V22.3a.417.417,0,0,1,.407-.407h1.772a.418.418,0,0,1,.407.407v.43a4.1,4.1,0,0,1,1.526-.784,5.774,5.774,0,0,1,1.385-.193.418.418,0,0,1,.407.407v1.463a.39.39,0,0,1-.12.285Z" transform="translate(-83.46 -17.885)"/><path class="a" d="M125.6,30.366a1.044,1.044,0,0,1-.448.214,17.4,17.4,0,0,1-2.036.387,15.774,15.774,0,0,1-2.057.143,4.653,4.653,0,0,1-3.665-1.351A5.467,5.467,0,0,1,116.2,26v-1.57a5.467,5.467,0,0,1,1.2-3.756,4.654,4.654,0,0,1,3.665-1.351q.369,0,.875.031t1.079.112V15.861a.418.418,0,0,1,.407-.407H125.3a.418.418,0,0,1,.407.407V30.03a.485.485,0,0,1-.1.336Zm-2.585-8.684q-.43-.061-1.008-.1t-.947-.041a2.329,2.329,0,0,0-1.079.222,1.72,1.72,0,0,0-.672.608,2.479,2.479,0,0,0-.336.91,6.809,6.809,0,0,0-.091,1.154v1.559a6.8,6.8,0,0,0,.091,1.154,2.481,2.481,0,0,0,.336.911,1.72,1.72,0,0,0,.672.607,2.322,2.322,0,0,0,1.079.222q.553,0,1.11-.04a6.63,6.63,0,0,0,.845-.1Z" transform="translate(-87.674 -15.454)"/></g><path class="b" d="M26.47,34H7.53A7.539,7.539,0,0,1,0,26.469V7.529A7.538,7.538,0,0,1,7.53,0H26.47A7.538,7.538,0,0,1,34,7.529v18.94A7.538,7.538,0,0,1,26.47,34ZM7.53,1.853A5.683,5.683,0,0,0,1.853,7.529v18.94A5.684,5.684,0,0,0,7.53,32.147H26.47a5.684,5.684,0,0,0,5.676-5.678V7.529A5.683,5.683,0,0,0,26.47,1.853Z"/><path class="b" d="M23.674,15.213H20.145l-7.417,15.31h3.641l5.55-11.634,5.647,11.634h3.524Z" transform="translate(-4.91 -5.868)"/><g transform="translate(43.153 2.952)"><path d="M70.813,7.957a.08.08,0,0,1-.061.025h-.415a.086.086,0,0,1-.084-.084V4.947a.074.074,0,0,1,.029-.061.084.084,0,0,1,.061-.023h.415a.084.084,0,0,1,.061.023.074.074,0,0,1,.018.061V7.9a.08.08,0,0,1-.025.057Z" transform="translate(-70.252 -4.827)"/><path d="M75.195,7.937a.164.164,0,0,1-.123.049h-.423a.5.5,0,0,1-.141-.019q-.065-.019-.115-.132l-.93-2.044c-.011-.022-.023-.034-.038-.034s-.021.012-.021.034V7.9a.083.083,0,0,1-.023.061.074.074,0,0,1-.057.025h-.356a.086.086,0,0,1-.084-.084V5.035a.165.165,0,0,1,.168-.168h.456a.2.2,0,0,1,.107.025A.251.251,0,0,1,73.693,5l.975,2.159c.009.023.019.034.033.034s.021-.013.021-.038V4.949a.071.071,0,0,1,.08-.08h.361a.071.071,0,0,1,.08.08V7.817A.163.163,0,0,1,75.195,7.937Z" transform="translate(-71.267 -4.829)"/><path d="M80.2,7.9a.215.215,0,0,1-.066.031l-.087.017c-.041.009-.09.016-.149.023s-.123.013-.2.019S79.549,8,79.468,8a1.59,1.59,0,0,1-.4-.055.97.97,0,0,1-.383-.2,1.106,1.106,0,0,1-.287-.393,1.52,1.52,0,0,1-.115-.638V6.1a1.547,1.547,0,0,1,.115-.644,1.082,1.082,0,0,1,.287-.393.964.964,0,0,1,.383-.2,1.655,1.655,0,0,1,.4-.052,2,2,0,0,1,.231.009c.073.009.139.012.2.019s.108.014.149.021a.743.743,0,0,1,.087.019.215.215,0,0,1,.066.031.077.077,0,0,1,.025.065V5.26a.1.1,0,0,1-.018.061.076.076,0,0,1-.064.025h-.009L80,5.337c-.052,0-.107-.008-.166-.01l-.181-.009q-.093,0-.176,0a.765.765,0,0,0-.246.038.43.43,0,0,0-.193.13.676.676,0,0,0-.126.246,1.3,1.3,0,0,0-.046.373v.614a1.284,1.284,0,0,0,.046.369.676.676,0,0,0,.126.246.451.451,0,0,0,.193.132.733.733,0,0,0,.246.04q.084,0,.176,0l.181-.009c.061,0,.114-.006.166-.01l.133-.01h0a.076.076,0,0,1,.064.025.1.1,0,0,1,.018.061v.281A.076.076,0,0,1,80.2,7.9Z" transform="translate(-73.35 -4.809)"/><path d="M85.176,7.915a.045.045,0,0,1-.05.05h-.512a.056.056,0,0,1-.052-.026.429.429,0,0,1-.034-.061l-.6-1.117h-.061c-.055,0-.119,0-.192-.006l-.18-.01V7.882a.084.084,0,0,1-.023.061.074.074,0,0,1-.057.025h-.42a.086.086,0,0,1-.084-.084V5a.108.108,0,0,1,.036-.09.211.211,0,0,1,.1-.036q.164-.025.377-.04c.143-.01.292-.015.445-.015a2.141,2.141,0,0,1,.462.049,1.147,1.147,0,0,1,.384.157.8.8,0,0,1,.265.292.944.944,0,0,1,.1.451V5.8a.845.845,0,0,1-.571.856l.658,1.229A.061.061,0,0,1,85.176,7.915ZM84.5,5.762a.382.382,0,0,0-.157-.344.852.852,0,0,0-.471-.105h-.085l-.107,0-.1,0a.393.393,0,0,0-.077.006v.946h.077l.109,0,.109,0h.077a.85.85,0,0,0,.477-.1.436.436,0,0,0,.15-.382Z" transform="translate(-75.134 -4.81)"/><path d="M89.814,7.913a.138.138,0,0,1-.064.025l-.112.019q-.061.01-.151.019c-.061.006-.133.01-.218.015S89.077,8,88.951,8a2.045,2.045,0,0,1-.383-.034.766.766,0,0,1-.307-.128.636.636,0,0,1-.207-.262,1.062,1.062,0,0,1-.076-.437V5.671a1.061,1.061,0,0,1,.074-.437.636.636,0,0,1,.207-.262.766.766,0,0,1,.307-.128,2.07,2.07,0,0,1,.383-.034q.189,0,.317.006c.086,0,.158.009.218.015s.111.012.151.019l.112.019a.138.138,0,0,1,.064.025.083.083,0,0,1,.018.061v.269a.086.086,0,0,1-.084.087h-.854a.353.353,0,0,0-.258.076.413.413,0,0,0-.074.285v.453H89.7a.085.085,0,0,1,.086.087v.3a.082.082,0,0,1-.025.061A.081.081,0,0,1,89.7,6.6H88.561v.537a.413.413,0,0,0,.074.286.353.353,0,0,0,.258.076h.857a.086.086,0,0,1,.084.087v.268a.082.082,0,0,1-.019.058Z" transform="translate(-77.089 -4.807)"/><path d="M94.867,7.892a.068.068,0,0,1-.021.052.079.079,0,0,1-.055.019h-.445a.068.068,0,0,1-.05-.021.11.11,0,0,1-.029-.05l-.193-.8h-.966l-.192.8a.123.123,0,0,1-.029.05.069.069,0,0,1-.05.021h-.445a.077.077,0,0,1-.055-.019.068.068,0,0,1-.021-.052V7.884a.023.023,0,0,0,0-.013L93,5.239a.575.575,0,0,1,.109-.231.548.548,0,0,1,.154-.128.506.506,0,0,1,.168-.057.935.935,0,0,1,.307,0,.506.506,0,0,1,.168.057.548.548,0,0,1,.154.128.576.576,0,0,1,.109.231l.688,2.631a.023.023,0,0,0,0,.013ZM93.657,5.37a.123.123,0,0,0-.021-.052.08.08,0,0,0-.092,0,.123.123,0,0,0-.021.052l-.3,1.246h.737Z" transform="translate(-78.762 -4.808)"/><path d="M99.687,7.118a.957.957,0,0,1-.055.317.709.709,0,0,1-.184.281.944.944,0,0,1-.34.2A1.539,1.539,0,0,1,98.581,8a3.531,3.531,0,0,1-.415-.021,3.263,3.263,0,0,1-.327-.055.129.129,0,0,1-.057-.029.071.071,0,0,1-.023-.055v-.3a.079.079,0,0,1,.08-.08h.009q.061.009.166.015l.212.013.208.01c.065,0,.118,0,.157,0a.568.568,0,0,0,.384-.1.369.369,0,0,0,.1-.281.35.35,0,0,0-.017-.111A.292.292,0,0,0,99,6.913a.586.586,0,0,0-.109-.094c-.045-.033-.1-.069-.174-.111l-.553-.332a1.444,1.444,0,0,1-.242-.176.852.852,0,0,1-.151-.184.669.669,0,0,1-.08-.2.988.988,0,0,1-.023-.212.9.9,0,0,1,.055-.319.614.614,0,0,1,.178-.254.86.86,0,0,1,.323-.166,1.775,1.775,0,0,1,.491-.061c.07,0,.144,0,.222.006s.155.01.231.019.144.017.206.025.111.017.147.025a.13.13,0,0,1,.055.027.068.068,0,0,1,.02.052v.315a.079.079,0,0,1-.018.055.066.066,0,0,1-.052.021h-.009q-.211-.021-.416-.031c-.138-.007-.274-.01-.412-.01a.568.568,0,0,0-.338.077.26.26,0,0,0-.1.22.3.3,0,0,0,.015.095.252.252,0,0,0,.055.088.557.557,0,0,0,.107.088c.045.029.1.061.168.1l.5.281a1.731,1.731,0,0,1,.286.2.965.965,0,0,1,.181.2.681.681,0,0,1,.092.218A1.1,1.1,0,0,1,99.687,7.118Z" transform="translate(-80.829 -4.806)"/><path d="M104.266,7.913a.138.138,0,0,1-.064.025l-.112.019q-.061.01-.151.019c-.061.006-.133.01-.218.015S103.529,8,103.4,8a2.045,2.045,0,0,1-.383-.034.766.766,0,0,1-.307-.128.636.636,0,0,1-.207-.262,1.062,1.062,0,0,1-.076-.437V5.672a1.061,1.061,0,0,1,.076-.436.636.636,0,0,1,.207-.262.766.766,0,0,1,.307-.128,2.07,2.07,0,0,1,.383-.034q.189,0,.317.006c.086,0,.158.009.218.015s.111.012.151.019l.112.019a.138.138,0,0,1,.065.025.083.083,0,0,1,.018.061v.269a.086.086,0,0,1-.084.087h-.857a.353.353,0,0,0-.258.076.413.413,0,0,0-.074.285v.453h1.138a.085.085,0,0,1,.086.087v.3a.082.082,0,0,1-.025.061.081.081,0,0,1-.061.025h-1.138v.536a.413.413,0,0,0,.074.286.353.353,0,0,0,.258.076h.857a.086.086,0,0,1,.084.087v.268A.082.082,0,0,1,104.266,7.913Z" transform="translate(-82.664 -4.808)"/></g></g></g></svg>