<svg xmlns="http://www.w3.org/2000/svg" width="25" height="25" viewBox="0 0 25 25"><g transform="translate(12.5 12.5)"><g transform="translate(-12.5 -12.5)"><path d="M19.464,25H5.537A5.543,5.543,0,0,1,0,19.463V5.536A5.543,5.543,0,0,1,5.537,0H19.464A5.542,5.542,0,0,1,25,5.536V19.463A5.543,5.543,0,0,1,19.464,25ZM5.537,1.362A4.179,4.179,0,0,0,1.362,5.536V19.463a4.18,4.18,0,0,0,4.175,4.175H19.464a4.179,4.179,0,0,0,4.174-4.175V5.536a4.179,4.179,0,0,0-4.174-4.174Z" fill="#0d0"/><path d="M32.573,29.311h-2.6L24.524,40.569H27.2l4.081-8.555,4.152,8.555h2.592Z" transform="translate(-18.775 -22.44)" fill="#0d0"/></g></g></svg>