<svg xmlns="http://www.w3.org/2000/svg" width="28" height="27.382"><path d="M7.793 2.219L5.785.211A14.639 14.639 0 0 0 0 11.234h2.808a11.859 11.859 0 0 1 4.985-9.015zm17.4 9.015H28A14.728 14.728 0 0 0 22.215.211l-1.994 2.008a11.929 11.929 0 0 1 4.971 9.015zm-2.766.7c0-4.311-2.3-7.92-6.319-8.875v-.953a2.107 2.107 0 1 0-4.213 0v.955c-4.03.955-6.319 4.55-6.319 8.875v7.021L2.77 21.765v1.4h22.464v-1.4l-2.808-2.808zM14 27.382a2.46 2.46 0 0 0 .562-.056 2.849 2.849 0 0 0 2.022-1.657 2.819 2.819 0 0 0 .211-1.1h-5.617A2.829 2.829 0 0 0 14 27.377z" fill="#bcc1d0"/></svg>