<svg xmlns="http://www.w3.org/2000/svg" width="106.619" height="109.611" viewBox="0 0 106.619 109.611"><path d="M96.312,62.177a42.709,42.709,0,0,0,.384-5.371,42.708,42.708,0,0,0-.384-5.371l11.564-9.043a2.765,2.765,0,0,0,.658-3.508L97.573,19.921a2.755,2.755,0,0,0-3.343-1.206L80.583,24.2a40.041,40.041,0,0,0-9.262-5.371L69.239,4.3A2.672,2.672,0,0,0,66.553,2H44.631a2.672,2.672,0,0,0-2.685,2.3L39.863,18.825A42.106,42.106,0,0,0,30.6,24.2L16.955,18.716a2.673,2.673,0,0,0-3.343,1.206L2.651,38.884a2.7,2.7,0,0,0,.658,3.508l11.564,9.043a43.464,43.464,0,0,0-.384,5.371,43.464,43.464,0,0,0,.384,5.371L3.308,71.219a2.765,2.765,0,0,0-.658,3.508L13.612,93.69A2.755,2.755,0,0,0,16.955,94.9L30.6,89.415a40.041,40.041,0,0,0,9.262,5.371l2.083,14.523a2.672,2.672,0,0,0,2.685,2.3H66.553a2.672,2.672,0,0,0,2.685-2.3l2.083-14.523a42.106,42.106,0,0,0,9.262-5.371L94.23,94.9a2.673,2.673,0,0,0,3.343-1.206l10.961-18.963a2.765,2.765,0,0,0-.658-3.508ZM55.592,75.988A19.182,19.182,0,1,1,74.774,56.806,19.2,19.2,0,0,1,55.592,75.988Z" transform="translate(-2.271 -2)" fill="#a9adb7"/></svg>