<svg xmlns="http://www.w3.org/2000/svg" width="28" height="27.382" viewBox="0 0 28 27.382"><defs><style>.a{fill:#bcc1d0;}</style></defs><path class="a" d="M9.823,4.719,7.815,2.711A14.639,14.639,0,0,0,2.03,13.734H4.838A11.859,11.859,0,0,1,9.823,4.719Zm17.4,9.015H30.03A14.728,14.728,0,0,0,24.245,2.711L22.251,4.719A11.929,11.929,0,0,1,27.222,13.734Zm-2.766.7c0-4.311-2.3-7.92-6.319-8.875V4.606a2.106,2.106,0,1,0-4.213,0v.955c-4.03.955-6.319,4.55-6.319,8.875v7.021L4.8,24.265v1.4H27.264v-1.4l-2.808-2.808ZM16.03,29.882a2.46,2.46,0,0,0,.562-.056,2.849,2.849,0,0,0,2.022-1.657,2.819,2.819,0,0,0,.211-1.1H13.208a2.829,2.829,0,0,0,2.822,2.808Z" transform="translate(-2.03 -2.5)"/></svg>