<svg xmlns="http://www.w3.org/2000/svg" width="106.619" height="109.611"><path d="M94.041 60.177a42.709 42.709 0 0 0 .384-5.371 42.708 42.708 0 0 0-.384-5.371l11.564-9.043a2.765 2.765 0 0 0 .658-3.508L95.302 17.921a2.755 2.755 0 0 0-3.343-1.206L78.312 22.2a40.041 40.041 0 0 0-9.262-5.371L66.968 2.3A2.672 2.672 0 0 0 64.282 0H42.36a2.672 2.672 0 0 0-2.685 2.3l-2.083 14.525a42.106 42.106 0 0 0-9.263 5.375l-13.645-5.484a2.673 2.673 0 0 0-3.343 1.206L.38 36.884a2.7 2.7 0 0 0 .658 3.508l11.564 9.043a43.464 43.464 0 0 0-.384 5.371 43.464 43.464 0 0 0 .384 5.371L1.037 69.219a2.765 2.765 0 0 0-.658 3.508L11.341 91.69a2.755 2.755 0 0 0 3.343 1.21l13.645-5.485a40.041 40.041 0 0 0 9.262 5.371l2.083 14.523a2.672 2.672 0 0 0 2.685 2.3h21.923a2.672 2.672 0 0 0 2.685-2.3l2.083-14.523a42.106 42.106 0 0 0 9.262-5.371L91.959 92.9a2.673 2.673 0 0 0 3.343-1.206l10.961-18.963a2.765 2.765 0 0 0-.658-3.508zm-40.72 13.811a19.182 19.182 0 1 1 19.182-19.182 19.2 19.2 0 0 1-19.182 19.182z" fill="#a9adb7"/></svg>