<svg xmlns="http://www.w3.org/2000/svg" width="145.865" height="34" viewBox="0 0 145.865 34">
  <g id="Group_4349" data-name="Group 4349" transform="translate(-557 -450)">
    <path id="Union_69" data-name="Union 69" d="M-1568.656-2640.851a4.445,4.445,0,0,1-1.566-1.093,4.649,4.649,0,0,1-.957-1.65,6.457,6.457,0,0,1-.326-2.093v-1.7a6.456,6.456,0,0,1,.326-2.093,4.657,4.657,0,0,1,.957-1.65,4.442,4.442,0,0,1,1.566-1.093,6.116,6.116,0,0,1,4.352,0,4.453,4.453,0,0,1,1.567,1.093,4.668,4.668,0,0,1,.956,1.65,6.434,6.434,0,0,1,.327,2.093v1.7a6.441,6.441,0,0,1-.327,2.094,4.647,4.647,0,0,1-.956,1.65,4.456,4.456,0,0,1-1.567,1.093,6.116,6.116,0,0,1-2.176.4A6.116,6.116,0,0,1-1568.656-2640.851Zm.5-8.611a3.405,3.405,0,0,0-.569,2.072v1.7a3.405,3.405,0,0,0,.567,2.072,2.23,2.23,0,0,0,1.681.766,2.229,2.229,0,0,0,1.681-.766,3.412,3.412,0,0,0,.568-2.072v-1.7a3.4,3.4,0,0,0-.568-2.072,2.228,2.228,0,0,0-1.68-.766A2.229,2.229,0,0,0-1568.16-2649.462Zm-80.906,8.721a4.855,4.855,0,0,1-1.917-1,5.529,5.529,0,0,1-1.44-1.967,7.633,7.633,0,0,1-.572-3.195v-3.09a7.786,7.786,0,0,1,.572-3.227,5.434,5.434,0,0,1,1.44-1.967,4.844,4.844,0,0,1,1.917-.977,8.3,8.3,0,0,1,2-.263q.609,0,1.156.042t.99.094c.3.036.545.072.747.106a3.183,3.183,0,0,1,.43.094,1.09,1.09,0,0,1,.337.157.382.382,0,0,1,.127.326v1.409a.513.513,0,0,1-.094.318.38.38,0,0,1-.327.127h-.041l-.662-.052q-.389-.033-.833-.057l-.9-.042c-.308-.013-.6-.021-.884-.021a3.838,3.838,0,0,0-1.219.19,2.152,2.152,0,0,0-.967.652,3.315,3.315,0,0,0-.631,1.219,6.451,6.451,0,0,0-.231,1.872v3.09a6.354,6.354,0,0,0,.231,1.85,3.3,3.3,0,0,0,.631,1.219,2.231,2.231,0,0,0,.967.663,3.634,3.634,0,0,0,1.22.2c.28,0,.574-.006.884-.021s.608-.03.9-.042.571-.031.83-.052l.662-.053h.042a.38.38,0,0,1,.326.127.51.51,0,0,1,.094.317v1.408a.382.382,0,0,1-.126.322,1.054,1.054,0,0,1-.336.157c-.084.013-.228.042-.431.084s-.452.081-.746.116-.624.067-.989.094-.75.042-1.156.042A7.911,7.911,0,0,1-1649.066-2640.741Zm68.812.188a5.548,5.548,0,0,1-1.9-.317,4.061,4.061,0,0,1-1.513-.957,4.5,4.5,0,0,1-1.01-1.6,6.245,6.245,0,0,1-.368-2.239v-1.958a6.238,6.238,0,0,1,.368-2.238,4.483,4.483,0,0,1,1.01-1.6,4.079,4.079,0,0,1,1.513-.958,5.571,5.571,0,0,1,1.9-.317,14.031,14.031,0,0,1,1.661.084,7.164,7.164,0,0,1,1.051.19.609.609,0,0,1,.357.178.643.643,0,0,1,.084.368v1.373a.271.271,0,0,1-.1.241.466.466,0,0,1-.274.075h-.063c-.212-.029-.408-.053-.59-.075s-.372-.034-.571-.041l-.673-.022c-.254-.006-.548-.009-.883-.01a2.206,2.206,0,0,0-.736.127,1.6,1.6,0,0,0-.641.431,2.273,2.273,0,0,0-.463.841,4.348,4.348,0,0,0-.178,1.356v1.956a4.346,4.346,0,0,0,.178,1.356,2.255,2.255,0,0,0,.463.84,1.59,1.59,0,0,0,.641.432,2.206,2.206,0,0,0,.736.127q.508,0,.883-.012c.254-.006.476-.014.673-.02s.385-.021.571-.042.381-.046.59-.075h.063a.461.461,0,0,1,.274.075.272.272,0,0,1,.1.241v1.367a.639.639,0,0,1-.084.365.6.6,0,0,1-.357.178,6.915,6.915,0,0,1-1.051.19,13.97,13.97,0,0,1-1.545.085Zm-34.524,0a5.548,5.548,0,0,1-1.9-.317,4.061,4.061,0,0,1-1.513-.957,4.5,4.5,0,0,1-1.01-1.6,6.224,6.224,0,0,1-.368-2.239v-1.958a6.235,6.235,0,0,1,.368-2.238,4.483,4.483,0,0,1,1.01-1.6,4.079,4.079,0,0,1,1.513-.958,5.571,5.571,0,0,1,1.9-.317,14.031,14.031,0,0,1,1.66.084,7.164,7.164,0,0,1,1.051.19.609.609,0,0,1,.357.178.643.643,0,0,1,.084.368v1.373a.272.272,0,0,1-.1.241.468.468,0,0,1-.274.075h-.064c-.212-.029-.408-.053-.589-.075s-.372-.034-.571-.041l-.673-.022c-.254-.006-.548-.009-.883-.01a2.205,2.205,0,0,0-.736.127,1.6,1.6,0,0,0-.641.431,2.271,2.271,0,0,0-.463.841,4.352,4.352,0,0,0-.178,1.356v1.956a4.349,4.349,0,0,0,.178,1.356,2.253,2.253,0,0,0,.463.84,1.59,1.59,0,0,0,.641.432,2.205,2.205,0,0,0,.736.127q.508,0,.883-.012c.254-.006.476-.014.673-.02s.385-.021.571-.042.381-.046.589-.075h.064a.463.463,0,0,1,.274.075.272.272,0,0,1,.1.241v1.367a.64.64,0,0,1-.084.365.6.6,0,0,1-.357.178,6.915,6.915,0,0,1-1.051.19,13.968,13.968,0,0,1-1.545.085Zm21.384-.148a2.912,2.912,0,0,1-1.166-.545,2.968,2.968,0,0,1-.841-1.073,4,4,0,0,1-.326-1.745v-.084a3.213,3.213,0,0,1,1.2-2.723,6.582,6.582,0,0,1,3.933-.914h1.325v-.935a1.651,1.651,0,0,0-.453-1.376,2.327,2.327,0,0,0-1.4-.339q-1.01,0-1.956.053t-1.471.115h-.105a.519.519,0,0,1-.274-.063c-.07-.042-.105-.14-.105-.292v-1.332a.425.425,0,0,1,.4-.437q.632-.127,1.523-.229a17.253,17.253,0,0,1,1.986-.1,5.246,5.246,0,0,1,3.438.988,3.716,3.716,0,0,1,1.188,3.028v7.568a.407.407,0,0,1-.129.294.405.405,0,0,1-.294.127h-1.787a.432.432,0,0,1-.42-.421v-.336a7.322,7.322,0,0,1-1.471.682,4.76,4.76,0,0,1-1.493.243A5.826,5.826,0,0,1-1593.394-2640.7Zm1.615-5.119a1.8,1.8,0,0,0-.719.336,1.1,1.1,0,0,0-.36.557,2.914,2.914,0,0,0-.094.779v.084a1.227,1.227,0,0,0,.359,1.041,2,2,0,0,0,1.163.263,3.885,3.885,0,0,0,1.131-.168,5.489,5.489,0,0,0,1.026-.42v-2.587h-1.435A4.9,4.9,0,0,0-1591.78-2645.82Zm-47.588,4.865a4.441,4.441,0,0,1-1.567-1.093,4.657,4.657,0,0,1-.957-1.65,6.463,6.463,0,0,1-.327-2.094v-1.7a6.462,6.462,0,0,1,.327-2.094,4.67,4.67,0,0,1,.957-1.65,4.441,4.441,0,0,1,1.567-1.093,6.114,6.114,0,0,1,4.352,0,4.446,4.446,0,0,1,1.566,1.093,4.685,4.685,0,0,1,.958,1.65,6.458,6.458,0,0,1,.326,2.094v1.7a6.464,6.464,0,0,1-.326,2.094,4.672,4.672,0,0,1-.958,1.65,4.446,4.446,0,0,1-1.566,1.093,6.113,6.113,0,0,1-2.176.4A6.113,6.113,0,0,1-1639.367-2640.956Zm.491-8.611a3.41,3.41,0,0,0-.566,2.072v1.7a3.417,3.417,0,0,0,.567,2.072,2.231,2.231,0,0,0,1.681.766,2.229,2.229,0,0,0,1.681-.766,3.406,3.406,0,0,0,.571-2.072v-1.7a3.4,3.4,0,0,0-.572-2.072,2.225,2.225,0,0,0-1.68-.766A2.225,2.225,0,0,0-1638.876-2649.567Zm63.1,8.947a.386.386,0,0,1-.294-.138.434.434,0,0,1-.127-.3v-11a.431.431,0,0,1,.42-.421h1.934a.431.431,0,0,1,.42.421v11a.436.436,0,0,1-.124.3h0a.391.391,0,0,1-.294.138Zm-23.839,0a.383.383,0,0,1-.294-.138.438.438,0,0,1-.127-.3v-11a.433.433,0,0,1,.42-.421h1.934a.433.433,0,0,1,.421.421v11a.435.435,0,0,1-.124.3h0a.389.389,0,0,1-.3.138Zm-9.968,0a.387.387,0,0,1-.294-.138.434.434,0,0,1-.127-.3v-11a.431.431,0,0,1,.42-.421h1.934a.431.431,0,0,1,.42.421v11a.435.435,0,0,1-.124.3h0a.391.391,0,0,1-.294.138Zm6.941,0h-1.955a.384.384,0,0,1-.294-.138.433.433,0,0,1-.127-.3V-2656.2a.432.432,0,0,1,.42-.421h1.956a.372.372,0,0,1,.283.127.428.428,0,0,1,.116.3v15.136a.457.457,0,0,1-.116.3.356.356,0,0,1-.281.138Zm50.392-.094a.387.387,0,0,1-.294-.138.437.437,0,0,1-.126-.3v-6.851a10.355,10.355,0,0,0-.053-1.146,1.583,1.583,0,0,0-.231-.715.992.992,0,0,0-.536-.381,3.246,3.246,0,0,0-.967-.116,3.454,3.454,0,0,0-1.125.2,9.113,9.113,0,0,0-1.251.557v8.452a.434.434,0,0,1-.127.3.382.382,0,0,1-.294.138h-1.934a.387.387,0,0,1-.294-.138.438.438,0,0,1-.127-.3v-11a.432.432,0,0,1,.421-.421h1.829a.431.431,0,0,1,.42.421v.444a8.963,8.963,0,0,1,.851-.483,4.9,4.9,0,0,1,.788-.3,5.33,5.33,0,0,1,.82-.169,7.706,7.706,0,0,1,.946-.053,4.14,4.14,0,0,1,1.85.358,2.653,2.653,0,0,1,1.1.989,4.15,4.15,0,0,1,.536,1.491,11.163,11.163,0,0,1,.147,1.872v6.851a.434.434,0,0,1-.123.3.386.386,0,0,1-.294.138Zm-71.111,0a.386.386,0,0,1-.294-.138.434.434,0,0,1-.127-.3v-6.851a10.122,10.122,0,0,0-.053-1.146,1.594,1.594,0,0,0-.23-.715.991.991,0,0,0-.536-.381,3.253,3.253,0,0,0-.968-.116,3.445,3.445,0,0,0-1.124.2,9,9,0,0,0-1.251.557v8.452a.434.434,0,0,1-.127.3.386.386,0,0,1-.294.138h-1.935a.387.387,0,0,1-.294-.138.441.441,0,0,1-.127-.3v-11a.431.431,0,0,1,.42-.421h1.83a.431.431,0,0,1,.42.421v.444a8.806,8.806,0,0,1,.851-.483,4.9,4.9,0,0,1,.788-.3,5.351,5.351,0,0,1,.82-.169,7.706,7.706,0,0,1,.946-.053,4.142,4.142,0,0,1,1.85.358,2.649,2.649,0,0,1,1.1.988,4.153,4.153,0,0,1,.536,1.492,11.163,11.163,0,0,1,.147,1.872v6.851a.434.434,0,0,1-.123.3.383.383,0,0,1-.294.138Zm57.047-13.085h-1.808c-.127,0-.191-.049-.191-.148a.284.284,0,0,1,.085-.209l2-2.525a1.979,1.979,0,0,1,.242-.241.5.5,0,0,1,.305-.074h2.207c.154,0,.231.052.232.148a.238.238,0,0,1-.084.167l-2.48,2.608a1.218,1.218,0,0,1-.22.209.527.527,0,0,1-.252.065Zm-9.506-.25a.443.443,0,0,1-.3-.127.392.392,0,0,1-.137-.3v-1.85a.391.391,0,0,1,.137-.3.442.442,0,0,1,.3-.127h2.039a.43.43,0,0,1,.421.42v1.85a.4.4,0,0,1-.124.3.4.4,0,0,1-.3.127Zm-23.836,0a.442.442,0,0,1-.3-.127.39.39,0,0,1-.138-.3v-1.85a.389.389,0,0,1,.138-.3.44.44,0,0,1,.3-.127h2.039a.429.429,0,0,1,.42.42v1.85a.4.4,0,0,1-.126.3.4.4,0,0,1-.294.127Zm-9.967,0a.445.445,0,0,1-.305-.127.388.388,0,0,1-.136-.3v-1.85a.391.391,0,0,1,.136-.3.444.444,0,0,1,.305-.127h2.039a.429.429,0,0,1,.42.42v1.85a.406.406,0,0,1-.128.3.4.4,0,0,1-.294.127Zm46.377-2.8h0v0Z" transform="translate(2252.76 3115.857)" fill="#223368"/>
    <g id="Group_54" data-name="Group 54" transform="translate(557 450)">
      <path id="Path_1608" data-name="Path 1608" d="M27.336,34H7.776A7.665,7.665,0,0,1,0,26.469V7.529A7.664,7.664,0,0,1,7.776,0h19.56a7.664,7.664,0,0,1,7.775,7.529v18.94A7.664,7.664,0,0,1,27.336,34ZM7.776,1.853A5.778,5.778,0,0,0,1.913,7.529v18.94a5.779,5.779,0,0,0,5.863,5.678h19.56A5.779,5.779,0,0,0,33.2,26.469V7.529a5.778,5.778,0,0,0-5.862-5.676Z" fill="#0d0"/>
      <path id="Path_1609" data-name="Path 1609" d="M24.032,15.213H20.387L12.728,31.024h3.76L22.221,19.01l5.832,12.015h3.639Z" transform="translate(-4.654 -6.119)" fill="#0d0"/>
    </g>
    <g id="Group_55" data-name="Group 55" transform="translate(599.907 453.048)">
      <path id="Path_1610" data-name="Path 1610" d="M70.831,8.058a.082.082,0,0,1-.063.026h-.429A.089.089,0,0,1,70.252,8V4.95a.077.077,0,0,1,.03-.063.087.087,0,0,1,.063-.024h.429a.087.087,0,0,1,.063.024.077.077,0,0,1,.019.063V8a.083.083,0,0,1-.026.059Z" transform="translate(-70.252 -4.826)"/>
      <path id="Path_1611" data-name="Path 1611" d="M75.27,8.037a.169.169,0,0,1-.127.05h-.437a.52.52,0,0,1-.145-.02q-.067-.02-.119-.136l-.96-2.111c-.011-.023-.024-.035-.039-.035s-.022.012-.022.035V8a.086.086,0,0,1-.023.063.077.077,0,0,1-.059.026h-.368A.089.089,0,0,1,72.884,8V5.04a.17.17,0,0,1,.173-.173h.471a.207.207,0,0,1,.111.026.259.259,0,0,1,.08.113l1.007,2.229c.009.023.02.035.034.035s.022-.013.022-.039V4.951a.073.073,0,0,1,.082-.082h.373a.073.073,0,0,1,.082.082V7.914a.169.169,0,0,1-.05.124Z" transform="translate(-71.214 -4.828)"/>
      <path id="Path_1612" data-name="Path 1612" d="M80.26,8a.222.222,0,0,1-.069.032L80.1,8.05c-.042.009-.093.016-.154.024s-.127.013-.2.02-.155.009-.239.009a1.642,1.642,0,0,1-.412-.056,1,1,0,0,1-.4-.206,1.142,1.142,0,0,1-.3-.405,1.57,1.57,0,0,1-.119-.659V6.141a1.6,1.6,0,0,1,.119-.665,1.118,1.118,0,0,1,.3-.405,1,1,0,0,1,.4-.2,1.709,1.709,0,0,1,.412-.054,2.069,2.069,0,0,1,.239.009c.075.009.143.013.2.02s.112.015.154.022a.766.766,0,0,1,.089.02.222.222,0,0,1,.069.032.079.079,0,0,1,.026.067v.291a.105.105,0,0,1-.019.063.079.079,0,0,1-.067.026h-.009l-.137-.011c-.053,0-.11-.008-.171-.011L79.7,5.334q-.1,0-.182,0a.79.79,0,0,0-.254.039.444.444,0,0,0-.2.134.7.7,0,0,0-.13.254,1.345,1.345,0,0,0-.048.386v.634a1.326,1.326,0,0,0,.048.381.7.7,0,0,0,.13.254.466.466,0,0,0,.2.136.757.757,0,0,0,.254.041q.086,0,.182,0l.187-.009c.063,0,.118-.006.171-.011l.137-.011H80.2a.079.079,0,0,1,.067.026.105.105,0,0,1,.019.063v.291A.079.079,0,0,1,80.26,8Z" transform="translate(-73.189 -4.809)"/>
      <path id="Path_1613" data-name="Path 1613" d="M85.25,8.017a.046.046,0,0,1-.052.052H84.67a.058.058,0,0,1-.054-.027.444.444,0,0,1-.035-.063L83.96,6.825H83.9c-.057,0-.123,0-.2-.006l-.186-.011V7.982a.087.087,0,0,1-.023.063.077.077,0,0,1-.059.026H83a.089.089,0,0,1-.087-.087V5a.111.111,0,0,1,.037-.093.218.218,0,0,1,.1-.037q.169-.026.389-.041c.147-.01.3-.015.46-.015a2.211,2.211,0,0,1,.477.05,1.185,1.185,0,0,1,.4.162.825.825,0,0,1,.273.3.975.975,0,0,1,.1.466v.039a.873.873,0,0,1-.589.884l.68,1.269A.063.063,0,0,1,85.25,8.017Zm-.7-2.223a.4.4,0,0,0-.162-.355A.88.88,0,0,0,83.9,5.33h-.088l-.11,0-.106,0a.406.406,0,0,0-.08.006v.977h.08l.112,0,.113,0H83.9a.878.878,0,0,0,.492-.108.45.45,0,0,0,.155-.395Z" transform="translate(-74.88 -4.81)"/>
      <path id="Path_1614" data-name="Path 1614" d="M89.874,8.014a.143.143,0,0,1-.067.026l-.115.02q-.063.011-.156.02c-.063.006-.137.011-.225.015s-.2.006-.327.006a2.112,2.112,0,0,1-.4-.035.791.791,0,0,1-.317-.132.657.657,0,0,1-.214-.271,1.1,1.1,0,0,1-.079-.451V5.7a1.1,1.1,0,0,1,.077-.452.657.657,0,0,1,.214-.271.791.791,0,0,1,.317-.132,2.138,2.138,0,0,1,.4-.035q.2,0,.327.006c.089,0,.164.01.225.015s.114.013.156.02l.115.02a.143.143,0,0,1,.067.026.086.086,0,0,1,.019.063v.278a.089.089,0,0,1-.086.089h-.882a.364.364,0,0,0-.266.078.426.426,0,0,0-.076.294v.468h1.175a.088.088,0,0,1,.089.089V6.57a.085.085,0,0,1-.025.063.084.084,0,0,1-.063.026H88.58v.555a.426.426,0,0,0,.076.295.364.364,0,0,0,.266.078h.885a.089.089,0,0,1,.086.089v.277a.085.085,0,0,1-.02.06Z" transform="translate(-76.733 -4.807)"/>
      <path id="Path_1615" data-name="Path 1615" d="M94.951,7.993a.07.07,0,0,1-.022.054.081.081,0,0,1-.056.02h-.46a.07.07,0,0,1-.051-.022.114.114,0,0,1-.03-.052l-.2-.825h-1l-.2.825a.127.127,0,0,1-.03.052.072.072,0,0,1-.052.022h-.46a.08.08,0,0,1-.056-.02.07.07,0,0,1-.022-.054V7.984a.024.024,0,0,0,0-.013l.71-2.718a.594.594,0,0,1,.113-.239.566.566,0,0,1,.159-.132.523.523,0,0,1,.173-.058.965.965,0,0,1,.317,0,.523.523,0,0,1,.173.058.566.566,0,0,1,.159.132.594.594,0,0,1,.113.239l.71,2.718a.024.024,0,0,0,0,.013Zm-1.25-2.6a.127.127,0,0,0-.022-.054.082.082,0,0,0-.1,0,.127.127,0,0,0-.022.054l-.311,1.287h.761Z" transform="translate(-78.319 -4.808)"/>
      <path id="Path_1616" data-name="Path 1616" d="M99.753,7.194a.988.988,0,0,1-.056.327.732.732,0,0,1-.19.291.975.975,0,0,1-.351.208,1.59,1.59,0,0,1-.544.08,3.647,3.647,0,0,1-.429-.022,3.371,3.371,0,0,1-.338-.056.133.133,0,0,1-.059-.03.074.074,0,0,1-.023-.056V7.623a.081.081,0,0,1,.082-.082h.009q.063.009.171.015l.219.013.215.011c.067,0,.122,0,.162,0a.586.586,0,0,0,.4-.1.381.381,0,0,0,.107-.291.362.362,0,0,0-.017-.115.3.3,0,0,0-.059-.1.605.605,0,0,0-.113-.1c-.047-.034-.107-.072-.18-.115l-.571-.343a1.491,1.491,0,0,1-.25-.182.879.879,0,0,1-.156-.19.691.691,0,0,1-.082-.2,1.02,1.02,0,0,1-.023-.219.933.933,0,0,1,.056-.329.634.634,0,0,1,.184-.263.888.888,0,0,1,.334-.171,1.833,1.833,0,0,1,.507-.063c.072,0,.148,0,.23.006s.16.011.239.02.148.017.213.026.114.017.152.026a.135.135,0,0,1,.056.028.07.07,0,0,1,.021.054v.325a.081.081,0,0,1-.019.056.069.069,0,0,1-.054.022h-.009q-.218-.022-.429-.032c-.142-.007-.283-.011-.425-.011a.587.587,0,0,0-.349.08.268.268,0,0,0-.107.227.313.313,0,0,0,.015.1.261.261,0,0,0,.056.091.576.576,0,0,0,.11.091c.046.03.1.063.173.106l.52.291a1.786,1.786,0,0,1,.295.2,1,1,0,0,1,.187.211.7.7,0,0,1,.095.225A1.132,1.132,0,0,1,99.753,7.194Z" transform="translate(-80.278 -4.806)"/>
      <path id="Path_1617" data-name="Path 1617" d="M104.326,8.015a.143.143,0,0,1-.067.026l-.115.02q-.063.011-.156.02c-.063.006-.137.011-.225.015s-.2.006-.327.006a2.112,2.112,0,0,1-.4-.035.791.791,0,0,1-.317-.132.656.656,0,0,1-.214-.271,1.1,1.1,0,0,1-.079-.451V5.7a1.1,1.1,0,0,1,.079-.45.657.657,0,0,1,.214-.271.791.791,0,0,1,.317-.132,2.138,2.138,0,0,1,.4-.035q.2,0,.327.006c.089,0,.164.01.225.015s.114.013.156.02l.115.02a.143.143,0,0,1,.067.026.086.086,0,0,1,.019.063V5.24a.089.089,0,0,1-.086.089h-.885a.364.364,0,0,0-.266.078.426.426,0,0,0-.076.294V6.17h1.175a.088.088,0,0,1,.089.089v.312a.085.085,0,0,1-.025.063.084.084,0,0,1-.063.026h-1.175v.554a.426.426,0,0,0,.076.295.364.364,0,0,0,.266.078h.885a.089.089,0,0,1,.086.089v.277A.085.085,0,0,1,104.326,8.015Z" transform="translate(-82.018 -4.808)"/>
    </g>
  </g>
</svg>
