<svg xmlns="http://www.w3.org/2000/svg" viewBox="0 0 42 42.001"><defs><style>.a{fill:#0d0;}</style></defs><g transform="translate(-618.731 -202.731)"><path class="a" d="M-1340.7,42a9.313,9.313,0,0,1-9.3-9.3V9.3a9.312,9.312,0,0,1,9.3-9.3h23.4a9.311,9.311,0,0,1,9.3,9.3V32.7a9.312,9.312,0,0,1-9.3,9.3Zm-7.014-32.7V32.7a7.022,7.022,0,0,0,7.014,7.015h23.4a7.021,7.021,0,0,0,7.012-7.015V9.3a7.021,7.021,0,0,0-7.012-7.013h-23.4A7.021,7.021,0,0,0-1347.712,9.3Zm25.7,21.156-6.976-14.372-6.856,14.372h-4.5l9.162-18.913h4.36l9.162,18.913Z" transform="translate(1968.73 202.731)"/></g></svg>